<svg width="19" height="19" viewBox="0 0 19 19" fill="none" xmlns="http://www.w3.org/2000/svg">
<path d="M11.0835 2.375L1.5835 3.95833V15.0417L11.0835 16.625V15.0417H16.6252C17.0622 15.0417 17.4168 14.687 17.4168 14.25V4.75C17.4168 4.313 17.0622 3.95833 16.6252 3.95833H11.0835V2.375ZM9.50016 4.24438V14.7556L3.16683 13.7011V5.29891L9.50016 4.24438ZM11.0835 5.54167H12.6668V7.125H11.0835V5.54167ZM14.2502 5.54167H15.8335V7.125H14.2502V5.54167ZM4.09766 6.56836L5.58976 9.49536L3.9585 12.4316H5.33309L6.22217 10.536C6.28154 10.3547 6.32144 10.2196 6.34123 10.1293H6.3536C6.38605 10.3177 6.42549 10.4517 6.45874 10.519L7.34009 12.4301H8.7085L7.1298 9.47371L8.66366 6.56836H7.38029L6.56543 8.30786C6.48626 8.53349 6.43308 8.70724 6.40617 8.81966H6.38607C6.34015 8.63125 6.29467 8.46507 6.23608 8.32178L5.50472 6.56836H4.09766ZM11.0835 8.70833H12.6668V10.2917H11.0835V8.70833ZM14.2502 8.70833H15.8335V10.2917H14.2502V8.70833ZM11.0835 11.875H12.6668V13.4583H11.0835V11.875ZM14.2502 11.875H15.8335V13.4583H14.2502V11.875Z" fill="black"/>
</svg>
