<svg width="16" height="11" viewBox="0 0 16 11" fill="none" xmlns="http://www.w3.org/2000/svg">
<path d="M8 1.46667C10.5841 1.46667 12.8886 3.02867 14.0136 5.5C12.8886 7.97133 10.5909 9.53333 8 9.53333C5.40909 9.53333 3.11136 7.97133 1.98636 5.5C3.11136 3.02867 5.41591 1.46667 8 1.46667ZM8 0C4.59091 0 1.67955 2.28067 0.5 5.5C1.67955 8.71933 4.59091 11 8 11C11.4091 11 14.3205 8.71933 15.5 5.5C14.3205 2.28067 11.4091 0 8 0ZM8 3.66667C8.94091 3.66667 9.70455 4.488 9.70455 5.5C9.70455 6.512 8.94091 7.33333 8 7.33333C7.05909 7.33333 6.29545 6.512 6.29545 5.5C6.29545 4.488 7.05909 3.66667 8 3.66667ZM8 2.2C6.30909 2.2 4.93182 3.68133 4.93182 5.5C4.93182 7.31867 6.30909 8.8 8 8.8C9.69091 8.8 11.0682 7.31867 11.0682 5.5C11.0682 3.68133 9.69091 2.2 8 2.2Z" fill="#FAFAFA"/>
</svg>
