<svg width="9" height="9" viewBox="0 0 9 9" fill="none" xmlns="http://www.w3.org/2000/svg">
<path d="M0.271875 7.82837C0.271875 8.04928 0.450961 8.22837 0.671875 8.22837L4.27187 8.22837C4.49279 8.22837 4.67187 8.04928 4.67187 7.82837C4.67187 7.60746 4.49279 7.42837 4.27187 7.42837L1.07188 7.42837L1.07187 4.22837C1.07187 4.00746 0.892789 3.82837 0.671875 3.82837C0.450961 3.82837 0.271875 4.00746 0.271875 4.22837L0.271875 7.82837ZM8.14294 0.757302C8.14294 0.536387 7.96386 0.357301 7.74294 0.357302L4.14294 0.357301C3.92203 0.357302 3.74294 0.536388 3.74294 0.757302C3.74294 0.978215 3.92203 1.1573 4.14294 1.1573L7.34294 1.1573L7.34294 4.3573C7.34294 4.57822 7.52203 4.7573 7.74294 4.7573C7.96386 4.7573 8.14294 4.57822 8.14294 4.3573L8.14294 0.757302ZM0.954718 8.11121L8.02579 1.04014L7.4601 0.474459L0.389032 7.54553L0.954718 8.11121Z" fill="#636363"/>
</svg>
