<svg width="13" height="11" viewBox="0 0 13 11" fill="none" xmlns="http://www.w3.org/2000/svg">
<path d="M10.1 4.78677C9.54771 4.78677 9.1 4.33906 9.1 3.78677V1C9.1 0.447715 8.65228 0 8.1 0H4.9C4.34772 0 3.9 0.447715 3.9 1V2.59008C3.9 3.14236 3.45228 3.59008 2.9 3.59008H1C0.447715 3.59008 0 4.03779 0 4.59008V9.77024C0 10.3225 0.447715 10.7702 1 10.7702H12C12.5523 10.7702 13 10.3225 13 9.77024V5.78677C13 5.23449 12.5523 4.78677 12 4.78677H10.1ZM5.2 2.19669C5.2 1.64441 5.64772 1.19669 6.2 1.19669H6.8C7.35228 1.19669 7.8 1.64441 7.8 2.19669V8.57354C7.8 9.12583 7.35228 9.57354 6.8 9.57354H6.2C5.64772 9.57354 5.2 9.12583 5.2 8.57354V2.19669ZM1.3 5.78677C1.3 5.23449 1.74772 4.78677 2.3 4.78677H2.9C3.45228 4.78677 3.9 5.23449 3.9 5.78677V8.57354C3.9 9.12583 3.45228 9.57354 2.9 9.57354H2.3C1.74772 9.57354 1.3 9.12583 1.3 8.57354V5.78677ZM11.7 8.57354C11.7 9.12583 11.2523 9.57354 10.7 9.57354H10.1C9.54772 9.57354 9.1 9.12583 9.1 8.57354V6.98346C9.1 6.43118 9.54772 5.98346 10.1 5.98346H10.7C11.2523 5.98346 11.7 6.43118 11.7 6.98346V8.57354Z" fill="#1D1D1D"/>
</svg>
