<svg width="16" height="20" viewBox="0 0 16 20" fill="none" xmlns="http://www.w3.org/2000/svg">
<path d="M8 19.06C9.1 19.06 10 18.2014 10 17.152H6C6 18.2014 6.9 19.06 8 19.06ZM14 13.336V8.56597C14 5.63717 12.37 3.18537 9.5 2.53664V1.88792C9.5 1.09609 8.83 0.456909 8 0.456909C7.17 0.456909 6.5 1.09609 6.5 1.88792V2.53664C3.64 3.18537 2 5.62763 2 8.56597V13.336L0 15.244V16.198H16V15.244L14 13.336ZM12 14.29H4V8.56597C4 6.20003 5.51 4.27294 8 4.27294C10.49 4.27294 12 6.20003 12 8.56597V14.29Z" fill="#9B9B9B"/>
</svg>
