<svg width="21" height="19" viewBox="0 0 21 19" fill="none" xmlns="http://www.w3.org/2000/svg">
<path d="M18.1 0H6.7C5.655 0 4.8 0.855 4.8 1.9V13.3C4.8 14.345 5.655 15.2 6.7 15.2H18.1C19.145 15.2 20 14.345 20 13.3V1.9C20 0.855 19.145 0 18.1 0ZM18.1 13.3H6.7V1.9H18.1V13.3ZM2.9 3.8H1V17.1C1 18.145 1.855 19 2.9 19H16.2V17.1H2.9V3.8ZM14.3 9.5V6.65C14.3 6.1275 13.8725 5.7 13.35 5.7H11.45V10.45H13.35C13.8725 10.45 14.3 10.0225 14.3 9.5ZM12.4 6.65H13.35V9.5H12.4V6.65ZM16.2 8.55H17.15V7.6H16.2V6.65H17.15V5.7H15.25V10.45H16.2V8.55ZM8.6 8.55H9.55C10.0725 8.55 10.5 8.1225 10.5 7.6V6.65C10.5 6.1275 10.0725 5.7 9.55 5.7H7.65V10.45H8.6V8.55ZM8.6 6.65H9.55V7.6H8.6V6.65Z" fill="black"/>
</svg>
