<svg width="21" height="19" viewBox="0 0 21 19" fill="none" xmlns="http://www.w3.org/2000/svg">
<path d="M17.85 5.27778H16.8V0H4.2V5.27778H3.15C1.407 5.27778 0 6.69222 0 8.44444V14.7778H4.2V19H16.8V14.7778H21V8.44444C21 6.69222 19.593 5.27778 17.85 5.27778ZM6.3 2.11111H14.7V5.27778H6.3V2.11111ZM14.7 14.7778V16.8889H6.3V12.6667H14.7V14.7778ZM16.8 12.6667V10.5556H4.2V12.6667H2.1V8.44444C2.1 7.86389 2.5725 7.38889 3.15 7.38889H17.85C18.4275 7.38889 18.9 7.86389 18.9 8.44444V12.6667H16.8Z" fill="black"/>
</svg>
