<svg width="16" height="15" viewBox="0 0 16 15" fill="none" xmlns="http://www.w3.org/2000/svg">
<g clip-path="url(#clip0_637_543)">
<path d="M8.00022 2.22222C9.47879 2.22222 10.8181 2.84444 11.7931 3.84444L9.07165 6.66667H15.5002V0L13.3038 2.27778C11.9431 0.866667 10.0681 0 8.00022 0C4.21808 0 1.11094 2.9 0.585938 6.66667H2.75022C3.24308 4.13333 5.40737 2.22222 8.00022 2.22222Z" fill="#FAFAFA"/>
<path d="M8.00022 2.22222C9.47879 2.22222 10.8181 2.84444 11.7931 3.84444L9.07165 6.66667H15.5002V0L13.3038 2.27778C11.9431 0.866667 10.0681 0 8.00022 0C4.21808 0 1.11094 2.9 0.585938 6.66667H2.75022C3.24308 4.13333 5.40737 2.22222 8.00022 2.22222Z" fill="#FAFAFA"/>
<path d="M7.99978 12.7778C6.52121 12.7778 5.18192 12.1556 4.20692 11.1556L6.92835 8.33333L0.499777 8.33333V15L2.69621 12.7222C4.05692 14.1333 5.93192 15 7.99978 15C11.7819 15 14.8891 12.1 15.4141 8.33333H13.2498C12.7569 10.8667 10.5926 12.7778 7.99978 12.7778Z" fill="#FAFAFA"/>
<path d="M3.847 10.8085L3.51047 11.1575L3.84892 11.5046C4.11804 11.7806 4.41294 12.0305 4.72976 12.2499L5.0144 11.8388C5.59056 12.2378 6.24451 12.5254 6.94759 12.6706L6.84648 13.1603C7.21976 13.2374 7.60544 13.2778 7.99978 13.2778C8.34594 13.2778 8.68549 13.2467 9.01583 13.1869L8.92682 12.6949C9.54884 12.5823 10.1341 12.3586 10.6627 12.0441L10.9183 12.4738C11.502 12.1266 12.0215 11.6789 12.4551 11.1545L12.0698 10.8359C12.4611 10.3626 12.7768 9.82038 12.9974 9.22937L13.4658 9.4042C13.5353 9.21813 13.5961 9.02766 13.6476 8.83333H13.7908V8.33333H14.873V8.55265C14.84 8.73712 14.8004 8.91911 14.7544 9.09836L15.2387 9.22261C15.0863 9.81675 14.8682 10.3831 14.593 10.9125L14.1494 10.6819C13.8859 11.1887 13.5666 11.6592 13.2003 12.0843L13.579 12.4107C13.1829 12.8704 12.735 13.2807 12.2446 13.6319L11.9535 13.2254C11.4962 13.5529 10.9998 13.8248 10.4733 14.0321L10.6565 14.4973C10.1014 14.7159 9.51443 14.868 8.90442 14.944L8.84255 14.4479C8.56659 14.4823 8.28537 14.5 7.99978 14.5C7.52997 14.5 7.07132 14.452 6.62797 14.3606L6.52694 14.8502C5.54306 14.6473 4.62788 14.2446 3.82239 13.6834L4.10822 13.2731C3.73038 13.0099 3.37802 12.709 3.05613 12.3752L2.69621 12.0019L2.33628 12.3752L1.78718 12.9446L2.1471 13.2917L1.04888 14.4306L0.999777 14.3832V14.1667H0.775222L0.688962 14.0835L0.608753 14.1667H0.499777V12.5H0.999777V10.8333H0.499777V9.16667H0.999777V8.83333H1.30335V8.33333H2.91049V8.83333H4.51763V8.33333L6.12478 8.33333V8.44634L5.88807 8.69182L6.24799 9.03889L4.88728 10.45L4.52736 10.1029L3.847 10.8085Z" stroke="#FAFAFA" stroke-dasharray="2 2"/>
</g>
<defs>
<clipPath id="clip0_637_543">
<rect width="15" height="15" fill="white" transform="translate(0.5)"/>
</clipPath>
</defs>
</svg>
