<svg width="16" height="16" viewBox="0 0 16 16" fill="none" xmlns="http://www.w3.org/2000/svg">
<path d="M11.6966 10.5244C11.529 10.36 11.3036 10.2678 11.0688 10.2678H10.8152C10.7492 10.2678 10.6857 10.2426 10.6377 10.1973C10.5364 10.1017 10.5295 9.94351 10.6168 9.8351C11.4168 8.84217 11.8925 7.59099 11.8925 6.23718C11.8925 3.02162 9.23042 0.415131 5.94626 0.415131C2.66209 0.415131 0 3.02162 0 6.23718C0 9.45275 2.66209 12.0592 5.94626 12.0592C7.3313 12.0592 8.61117 11.5919 9.62611 10.8062C9.73499 10.7219 9.89044 10.7287 9.98705 10.8268C10.0357 10.8761 10.0629 10.9426 10.0629 11.0119V11.2528C10.0629 11.4821 10.1554 11.7017 10.3194 11.862L13.9691 15.4284C14.3403 15.7911 14.9333 15.7908 15.3041 15.4277C15.6861 15.0536 15.6865 14.4387 15.3048 14.0643L11.6966 10.5244ZM5.94626 10.2678C3.66838 10.2678 1.82962 8.46747 1.82962 6.23718C1.82962 4.00689 3.66838 2.20653 5.94626 2.20653C8.22413 2.20653 10.0629 4.00689 10.0629 6.23718C10.0629 8.46747 8.22413 10.2678 5.94626 10.2678Z" fill="#9B9B9B"/>
</svg>
