<svg width="12" height="10" viewBox="0 0 12 10" fill="none" xmlns="http://www.w3.org/2000/svg">
<path d="M8.78744 6.46559C8.65105 6.3517 8.47899 6.28931 8.3013 6.28931H8.09275C8.05492 6.28931 8.01823 6.27639 7.98875 6.2527C7.91092 6.19016 7.90575 6.07373 7.97408 6.00093C8.56716 5.36907 8.91938 4.57508 8.91938 3.71641C8.91938 1.66381 6.92281 0 4.45969 0C1.99657 0 0 1.66381 0 3.71641C0 5.76901 1.99657 7.43282 4.45969 7.43282C5.50526 7.43282 6.47092 7.13059 7.23448 6.62311C7.31015 6.57282 7.41036 6.57703 7.4791 6.63643C7.52233 6.67379 7.54717 6.72809 7.54717 6.78521V6.9183C7.54717 7.06316 7.61159 7.20052 7.72296 7.29314L10.5584 9.65127C10.8013 9.85333 11.1539 9.85315 11.3967 9.65085C11.7108 9.38911 11.711 8.90677 11.3972 8.64472L8.78744 6.46559ZM4.45969 6.28931C2.75129 6.28931 1.37221 5.14008 1.37221 3.71641C1.37221 2.29274 2.75129 1.14351 4.45969 1.14351C6.1681 1.14351 7.54717 2.29274 7.54717 3.71641C7.54717 5.14008 6.1681 6.28931 4.45969 6.28931Z" fill="#FAFAFA"/>
</svg>
