<svg width="11" height="12" viewBox="0 0 11 12" fill="none" xmlns="http://www.w3.org/2000/svg">
<path d="M5.5 2.12696C6.25625 2.12696 6.875 2.73279 6.875 3.47324C6.875 4.2137 6.25625 4.81952 5.5 4.81952C4.74375 4.81952 4.125 4.2137 4.125 3.47324C4.125 2.73279 4.74375 2.12696 5.5 2.12696ZM5.5 8.85836C7.35625 8.85836 9.4875 9.72671 9.625 10.2046H1.375C1.53313 9.71998 3.65062 8.85836 5.5 8.85836ZM5.5 0.780685C3.98062 0.780685 2.75 1.98561 2.75 3.47324C2.75 4.96088 3.98062 6.1658 5.5 6.1658C7.01937 6.1658 8.25 4.96088 8.25 3.47324C8.25 1.98561 7.01937 0.780685 5.5 0.780685ZM5.5 7.51208C3.66437 7.51208 0 8.41409 0 10.2046V11.5509H11V10.2046C11 8.41409 7.33563 7.51208 5.5 7.51208Z" fill="#1D1D1D"/>
</svg>
